<svg width="151" height="83" viewBox="0 0 151 83" fill="none" xmlns="http://www.w3.org/2000/svg">
<path d="M22.9107 80.9147C17.9729 80.9147 13.7533 79.6129 10.252 77.0093C6.75067 74.316 5 70.276 5 64.8893C5 60.7596 5.808 56.3156 7.424 51.5573C9.12978 46.7991 11.3293 42.2653 14.0227 37.956C16.8058 33.5569 19.8582 29.9209 23.18 27.048C25.2449 25.2525 27.4893 23.7711 29.9133 22.604C32.3373 21.4369 34.7613 20.8085 37.1853 20.7187C41.3151 20.4493 44.9511 20.9431 48.0933 22.2C51.2356 23.4569 52.8067 25.9258 52.8067 29.6067C52.8067 30.5045 52.672 31.5369 52.4027 32.704C52.2231 33.7813 51.8191 34.9933 51.1907 36.34C50.2929 38.3151 49.1258 40.2453 47.6893 42.1307C46.3427 44.016 45.1756 45.3178 44.188 46.036C43.2004 46.7542 42.2129 47.2929 41.2253 47.652C40.2378 47.9213 39.34 48.056 38.532 48.056C37.6342 48.056 36.8262 47.9213 36.108 47.652C35.4796 47.3827 34.9409 47.0685 34.492 46.7093C35.6591 44.824 36.8262 42.7142 37.9933 40.38C39.1604 38.0458 40.1929 35.8911 41.0907 33.916C41.9884 31.8511 42.5271 30.28 42.7067 29.2027C42.7964 28.8436 42.8413 28.5293 42.8413 28.26C42.9311 27.9907 42.976 27.7213 42.976 27.452C42.976 25.6565 42.3027 24.7587 40.956 24.7587C39.8787 24.7587 38.7116 25.5218 37.4547 27.048C35.2102 29.5618 33.0556 32.704 30.9907 36.4747C28.9258 40.2453 26.9956 44.2853 25.2 48.5947C24.7511 49.7618 24.1227 51.3778 23.3147 53.4427C22.5964 55.5076 21.9231 57.752 21.2947 60.176C20.756 62.5102 20.4867 64.7547 20.4867 66.9093C20.4867 69.3333 21.0253 71.3982 22.1027 73.104C23.2698 74.72 25.3347 75.528 28.2973 75.528C31.1702 75.528 33.8187 74.72 36.2427 73.104C38.7564 71.3982 41.0907 69.2436 43.2453 66.64C45.4 63.9467 47.3302 61.1187 49.036 58.156C50.7418 55.1036 52.268 52.2307 53.6147 49.5373C53.884 48.9089 54.3329 48.5947 54.9613 48.5947C55.5 48.5947 55.9938 48.864 56.4427 49.4027C56.8916 49.9413 56.9364 50.5698 56.5773 51.288C55.3204 53.8018 53.9289 56.3605 52.4027 58.964C50.9662 61.5676 49.3951 64.1262 47.6893 66.64C44.8164 70.9493 41.3151 74.4058 37.1853 77.0093C33.0556 79.6129 28.2973 80.9147 22.9107 80.9147Z" fill="#D2AFE2"/>
<path d="M66.2649 79.972C60.7885 79.972 56.6138 78.9845 53.7409 77.0093C50.868 75.0342 49.4316 71.6227 49.4316 66.7747C49.4316 63.6325 49.9703 60.1311 51.0476 56.2707C52.1249 52.4102 53.4716 48.5498 55.0876 44.6893C56.7036 40.7391 58.4094 37.0133 60.2049 33.512C62.0005 30.0107 63.6614 27.0031 65.1876 24.4893C66.7138 21.8858 67.836 20.0453 68.5543 18.968C70.3498 16.4542 72.3249 13.8956 74.4796 11.292C76.724 8.68845 79.1929 6.48889 81.8863 4.69334C84.6694 2.89778 87.6769 2 90.9089 2C92.6147 2 94.3654 2.31422 96.1609 2.94267C98.2258 3.75067 99.2583 4.55867 99.2583 5.36667C99.2583 5.90534 98.8094 6.17467 97.9116 6.17467C97.5525 6.17467 97.0138 6.39911 96.2956 6.848C95.6671 7.20711 95.0836 7.656 94.5449 8.19467C92.9289 9.81067 90.9987 12.1 88.7543 15.0627C86.5996 18.0253 84.3103 21.3022 81.8863 24.8933C79.552 28.4845 77.3076 32.2102 75.1529 36.0707C73.088 39.8413 71.3374 43.4325 69.9009 46.844C73.8511 41.3676 77.3525 36.6093 80.4049 32.5693C83.5471 28.4396 86.7791 25.1178 90.1009 22.604C91.0885 21.8858 92.3454 21.5267 93.8716 21.5267C96.4751 21.5267 98.8094 22.2 100.874 23.5467C102.131 24.4445 102.76 26.1951 102.76 28.7987C102.76 31.0431 102.356 33.7365 101.548 36.8787C100.74 40.0209 99.6623 43.2978 98.3156 46.7093C97.0587 50.0311 95.6671 53.2631 94.1409 56.4053L91.7169 61.2533C91.4476 62.0613 91.3129 62.9142 91.3129 63.812C91.3129 64.9791 91.5823 66.0116 92.1209 66.9093C92.6596 67.8071 93.4227 68.256 94.4103 68.256C95.7569 68.256 97.2831 67.0889 98.9889 64.7547C100.246 63.2285 101.413 61.4778 102.49 59.5027C103.657 57.4378 104.69 55.5076 105.588 53.712C106.485 51.9165 107.159 50.6147 107.608 49.8067C107.877 49.1782 108.371 48.864 109.089 48.864C109.717 48.864 110.256 49.0885 110.705 49.5373C111.154 49.9862 111.199 50.5698 110.84 51.288C110.032 52.8142 108.999 54.7445 107.742 57.0787C106.575 59.4129 105.228 61.7471 103.702 64.0813C102.266 66.3258 100.695 68.1662 98.9889 69.6027C97.3729 70.9493 95.8018 71.6227 94.2756 71.6227C92.9289 71.6227 91.7169 71.2187 90.6396 70.4107C89.652 69.5129 88.9338 68.4356 88.4849 67.1787C86.1507 70.8596 83.2778 73.912 79.8663 76.336C76.4547 78.76 71.9209 79.972 66.2649 79.972ZM63.9756 74.4507C65.2325 74.4507 66.8036 73.3285 68.6889 71.084C70.5743 68.7498 72.5045 65.832 74.4796 62.3307C76.4547 58.7396 78.2951 54.9689 80.0009 51.0187C81.7067 47.0685 83.0085 43.3427 83.9063 39.8413C84.8938 36.34 85.2978 33.6018 85.1183 31.6267C83.9511 32.8836 82.6045 34.4547 81.0783 36.34C79.6418 38.1356 78.1605 40.1107 76.6343 42.2653C76.4547 42.5347 75.8263 43.5222 74.7489 45.228C73.7614 46.844 72.5494 48.9089 71.1129 51.4227C69.6765 53.8467 68.2849 56.4053 66.9383 59.0987C65.5916 61.792 64.4694 64.3058 63.5716 66.64C62.6738 68.9742 62.2249 70.8596 62.2249 72.296C62.2249 73.7325 62.8085 74.4507 63.9756 74.4507Z" fill="#D2AFE2"/>
<path d="M136.516 79.9436C133.885 79.9436 131.694 78.9792 129.94 77.0504C128.274 75.0339 127.441 72.7105 127.441 70.0803C127.441 67.4501 128.274 65.1706 129.94 63.2418C131.694 61.313 133.885 60.3486 136.516 60.3486C139.146 60.3486 141.294 61.3568 142.96 63.3733C144.625 65.3021 145.458 67.5378 145.458 70.0803C145.458 72.7105 144.625 75.0339 142.96 77.0504C141.294 78.9792 139.146 79.9436 136.516 79.9436Z" fill="#D2AFE2"/>
</svg>
