<svg width="30" height="30" viewBox="0 0 30 30" fill="none" xmlns="http://www.w3.org/2000/svg">
<path d="M7.5 6.25125C7.49967 6.91429 7.23596 7.55004 6.76688 8.01865C6.29781 8.48726 5.66179 8.75033 4.99875 8.75C4.33571 8.74967 3.69996 8.48596 3.23135 8.01688C2.76274 7.54781 2.49967 6.91179 2.5 6.24875C2.50033 5.58571 2.76404 4.94996 3.23312 4.48135C3.70219 4.01274 4.33821 3.74967 5.00125 3.75C5.66429 3.75033 6.30004 4.01404 6.76865 4.48312C7.23726 4.95219 7.50033 5.58821 7.5 6.25125ZM7.575 10.6012H2.575V26.2512H7.575V10.6012ZM15.475 10.6012H10.5V26.2512H15.425V18.0388C15.425 13.4638 21.3875 13.0388 21.3875 18.0388V26.2512H26.325V16.3388C26.325 8.62625 17.5 8.91375 15.425 12.7013L15.475 10.6012Z" fill="white"/>
</svg>
