<svg width="151" height="162" viewBox="0 0 151 162" fill="none" xmlns="http://www.w3.org/2000/svg">
<path d="M23.2974 117.155C18.3596 117.155 14.1401 115.853 10.6387 113.25C7.13739 110.556 5.38672 106.516 5.38672 101.13C5.38672 96.9998 6.19472 92.5558 7.81072 87.7976C9.5165 83.0394 11.7161 78.5056 14.4094 74.1962C17.1925 69.7971 20.2449 66.1611 23.5667 63.2882C25.6316 61.4927 27.8761 60.0114 30.3001 58.8442C32.7241 57.6771 35.1481 57.0487 37.5721 56.9589C41.7018 56.6896 45.3378 57.1834 48.4801 58.4402C51.6223 59.6971 53.1934 62.166 53.1934 65.8469C53.1934 66.7447 53.0587 67.7771 52.7894 68.9442C52.6098 70.0216 52.2058 71.2336 51.5774 72.5802C50.6796 74.5554 49.5125 76.4856 48.0761 78.3709C46.7294 80.2562 45.5623 81.558 44.5747 82.2762C43.5872 82.9945 42.5996 83.5331 41.6121 83.8922C40.6245 84.1616 39.7267 84.2962 38.9187 84.2962C38.0209 84.2962 37.2129 84.1616 36.4947 83.8922C35.8663 83.6229 35.3276 83.3087 34.8787 82.9496C36.0458 81.0642 37.2129 78.9545 38.3801 76.6202C39.5472 74.286 40.5796 72.1314 41.4774 70.1562C42.3752 68.0914 42.9138 66.5202 43.0934 65.4429C43.1832 65.0838 43.2281 64.7696 43.2281 64.5002C43.3178 64.2309 43.3627 63.9616 43.3627 63.6922C43.3627 61.8967 42.6894 60.9989 41.3427 60.9989C40.2654 60.9989 39.0983 61.762 37.8414 63.2882C35.5969 65.802 33.4423 68.9442 31.3774 72.7149C29.3125 76.4856 27.3823 80.5256 25.5867 84.8349C25.1378 86.002 24.5094 87.618 23.7014 89.6829C22.9832 91.7478 22.3098 93.9922 21.6814 96.4162C21.1427 98.7505 20.8734 100.995 20.8734 103.15C20.8734 105.574 21.4121 107.638 22.4894 109.344C23.6565 110.96 25.7214 111.768 28.6841 111.768C31.5569 111.768 34.2054 110.96 36.6294 109.344C39.1432 107.638 41.4774 105.484 43.6321 102.88C45.7867 100.187 47.7169 97.3589 49.4227 94.3962C51.1285 91.3438 52.6547 88.4709 54.0014 85.7776C54.2707 85.1491 54.7196 84.8349 55.3481 84.8349C55.8867 84.8349 56.3805 85.1042 56.8294 85.6429C57.2783 86.1816 57.3232 86.81 56.9641 87.5282C55.7072 90.042 54.3156 92.6007 52.7894 95.2042C51.3529 97.8078 49.7818 100.366 48.0761 102.88C45.2032 107.19 41.7018 110.646 37.5721 113.25C33.4423 115.853 28.6841 117.155 23.2974 117.155Z" fill="#B387C8"/>
<path d="M66.6516 116.212C61.1752 116.212 57.0005 115.225 54.1276 113.25C51.2547 111.274 49.8183 107.863 49.8183 103.015C49.8183 99.8727 50.357 96.3714 51.4343 92.5109C52.5116 88.6505 53.8583 84.79 55.4743 80.9296C57.0903 76.9794 58.7961 73.2536 60.5916 69.7522C62.3872 66.2509 64.0481 63.2434 65.5743 60.7296C67.1005 58.126 68.2228 56.2856 68.941 55.2082C70.7365 52.6945 72.7116 50.1358 74.8663 47.5322C77.1108 44.9287 79.5796 42.7291 82.273 40.9336C85.0561 39.138 88.0636 38.2402 91.2956 38.2402C93.0014 38.2402 94.7521 38.5545 96.5476 39.1829C98.6125 39.9909 99.645 40.7989 99.645 41.6069C99.645 42.1456 99.1961 42.4149 98.2983 42.4149C97.9392 42.4149 97.4005 42.6393 96.6823 43.0882C96.0539 43.4473 95.4703 43.8962 94.9316 44.4349C93.3156 46.0509 91.3854 48.3402 89.141 51.3029C86.9863 54.2656 84.697 57.5425 82.273 61.1336C79.9388 64.7247 77.6943 68.4505 75.5396 72.3109C73.4748 76.0816 71.7241 79.6727 70.2876 83.0842C74.2379 77.6078 77.7392 72.8496 80.7916 68.8096C83.9339 64.6798 87.1659 61.358 90.4876 58.8442C91.4752 58.126 92.7321 57.7669 94.2583 57.7669C96.8619 57.7669 99.1961 58.4402 101.261 59.7869C102.518 60.6847 103.146 62.4354 103.146 65.0389C103.146 67.2834 102.742 69.9767 101.934 73.1189C101.126 76.2611 100.049 79.538 98.7023 82.9496C97.4454 86.2714 96.0539 89.5034 94.5276 92.6456L92.1036 97.4936C91.8343 98.3016 91.6996 99.1545 91.6996 100.052C91.6996 101.219 91.969 102.252 92.5076 103.15C93.0463 104.047 93.8094 104.496 94.797 104.496C96.1436 104.496 97.6699 103.329 99.3756 100.995C100.633 99.4687 101.8 97.718 102.877 95.7429C104.044 93.678 105.077 91.7478 105.974 89.9522C106.872 88.1567 107.545 86.8549 107.994 86.0469C108.264 85.4185 108.757 85.1042 109.476 85.1042C110.104 85.1042 110.643 85.3287 111.092 85.7776C111.541 86.2265 111.585 86.81 111.226 87.5282C110.418 89.0545 109.386 90.9847 108.129 93.3189C106.962 95.6531 105.615 97.9874 104.089 100.322C102.653 102.566 101.081 104.406 99.3756 105.843C97.7596 107.19 96.1885 107.863 94.6623 107.863C93.3156 107.863 92.1036 107.459 91.0263 106.651C90.0388 105.753 89.3205 104.676 88.8716 103.419C86.5374 107.1 83.6645 110.152 80.253 112.576C76.8414 115 72.3076 116.212 66.6516 116.212ZM64.3623 110.691C65.6192 110.691 67.1903 109.569 69.0756 107.324C70.961 104.99 72.8912 102.072 74.8663 98.5709C76.8414 94.9798 78.6819 91.2091 80.3876 87.2589C82.0934 83.3087 83.3952 79.5829 84.293 76.0816C85.2805 72.5802 85.6845 69.842 85.505 67.8669C84.3379 69.1238 82.9912 70.6949 81.465 72.5802C80.0285 74.3758 78.5472 76.3509 77.021 78.5056C76.8414 78.7749 76.213 79.7625 75.1356 81.4682C74.1481 83.0842 72.9361 85.1491 71.4996 87.6629C70.0632 90.0869 68.6716 92.6456 67.325 95.3389C65.9783 98.0322 64.8561 100.546 63.9583 102.88C63.0605 105.214 62.6116 107.1 62.6116 108.536C62.6116 109.973 63.1952 110.691 64.3623 110.691Z" fill="#B387C8"/>
<path d="M136.902 116.184C134.272 116.184 132.08 115.219 130.327 113.291C128.661 111.274 127.828 108.951 127.828 106.321C127.828 103.69 128.661 101.411 130.327 99.482C132.08 97.5532 134.272 96.5888 136.902 96.5888C139.533 96.5888 141.681 97.597 143.346 99.6135C145.012 101.542 145.845 103.778 145.845 106.321C145.845 108.951 145.012 111.274 143.346 113.291C141.681 115.219 139.533 116.184 136.902 116.184Z" fill="#B387C8"/>
</svg>
