<svg width="30" height="30" viewBox="0 0 30 30" fill="none" xmlns="http://www.w3.org/2000/svg">
<g clip-path="url(#clip0_2667_7)">
<path d="M27.5 9.41895V21.2502C27.5001 22.2067 27.1346 23.1271 26.4784 23.823C25.8222 24.519 24.9249 24.9378 23.97 24.9939L23.75 25.0002H6.25C5.29349 25.0002 4.37311 24.6348 3.67717 23.9786C2.98124 23.3224 2.56237 22.4251 2.50625 21.4702L2.5 21.2502V9.41895L14.3062 17.2902L14.4512 17.3727C14.6221 17.4562 14.8098 17.4996 15 17.4996C15.1902 17.4996 15.3779 17.4562 15.5488 17.3727L15.6938 17.2902L27.5 9.41895Z" fill="white"/>
<path d="M23.75 5C25.1 5 26.2838 5.7125 26.9438 6.78375L15 14.7462L3.05627 6.78375C3.36969 6.27471 3.80029 5.848 4.31216 5.53923C4.82403 5.23046 5.40231 5.04857 5.99877 5.00875L6.25002 5H23.75Z" fill="white"/>
</g>
<defs>
<clipPath id="clip0_2667_7">
<rect width="30" height="30" fill="white"/>
</clipPath>
</defs>
</svg>
